<svg width="86" height="77" viewBox="0 0 86 77" fill="none" xmlns="http://www.w3.org/2000/svg">
<path fill-rule="evenodd" clip-rule="evenodd" d="M11.1494 11.3057C16.7233 5.76062 26.5905 0 38.7 0C50.7761 0 60.4338 5.51903 66.0356 11.0918C70.7135 15.7456 75.544 23.4077 76.9761 32.872L78.6594 31.1974C80.3387 29.5268 83.0613 29.5268 84.7406 31.1974C86.4198 32.868 86.4198 35.5765 84.7406 37.2471L76.1406 45.8026C74.5913 47.3439 72.1247 47.4798 70.4138 46.1182L59.6638 37.5626C57.8094 36.0867 57.5087 33.3948 58.9923 31.5499C60.4758 29.7051 63.1818 29.406 65.0362 30.8818L68.3714 33.5362C67.1419 26.4374 63.4661 20.635 59.9544 17.1415C55.6825 12.8917 48.1239 8.55556 38.7 8.55556C29.3095 8.55555 21.5303 13.0779 17.2306 17.3554C12.9587 21.6052 8.6 29.1248 8.6 38.5C8.6 47.842 13.1458 55.5809 17.4456 59.8585C21.7175 64.1083 29.2761 68.4444 38.7 68.4444C41.0748 68.4444 43 70.3597 43 72.7222C43 75.0848 41.0748 77 38.7 77C26.6239 77 16.9662 71.481 11.3644 65.9082C5.79055 60.3631 0 50.5469 0 38.5C0 26.4864 5.5477 16.8785 11.1494 11.3057ZM38.7 23.5278C38.7 21.1652 36.7748 19.25 34.4 19.25C32.0252 19.25 30.1 21.1652 30.1 23.5278V42.2431C30.1 43.4766 30.6353 44.6501 31.5684 45.4624L44.4684 56.6916C46.2557 58.2473 48.9723 58.0672 50.5361 56.2892C52.0999 54.5112 51.9188 51.8086 50.1316 50.2529L38.7 40.3019V23.5278Z" fill="url(#paint0_linear_25_75)"/>
<defs>
<linearGradient id="paint0_linear_25_75" x1="-10.5" y1="39" x2="86" y2="39" gradientUnits="userSpaceOnUse">
<stop stop-color="#3C91E6"/>
<stop offset="1" stop-color="#111D4A"/>
</linearGradient>
</defs>
</svg>
