<?xml version="1.0" encoding="UTF-8"?>
<!DOCTYPE svg PUBLIC "-//W3C//DTD SVG 1.1//EN" "http://www.w3.org/Graphics/SVG/1.1/DTD/svg11.dtd">
<!-- Creator: CorelDRAW -->
<svg xmlns="http://www.w3.org/2000/svg" xml:space="preserve" width="90.0462mm" height="22.4895mm" version="1.1" style="shape-rendering:geometricPrecision; text-rendering:geometricPrecision; image-rendering:optimizeQuality; fill-rule:evenodd; clip-rule:evenodd"
viewBox="0 0 29194.55 7291.49"
 xmlns:xlink="http://www.w3.org/1999/xlink"
 xmlns:xodm="http://www.corel.com/coreldraw/odm/2003">
 <defs>
  <style type="text/css">
   <![CDATA[
    .fil38 {fill:url(#id0)}
    .fil34 {fill:url(#id1)}
    .fil37 {fill:url(#id2)}
    .fil36 {fill:url(#id3)}
    .fil35 {fill:url(#id4)}
    .fil8 {fill:url(#id5);fill-rule:nonzero}
    .fil23 {fill:url(#id6);fill-rule:nonzero}
    .fil18 {fill:url(#id7);fill-rule:nonzero}
    .fil26 {fill:url(#id8);fill-rule:nonzero}
    .fil7 {fill:url(#id9);fill-rule:nonzero}
    .fil13 {fill:url(#id10);fill-rule:nonzero}
    .fil17 {fill:url(#id11);fill-rule:nonzero}
    .fil16 {fill:url(#id12);fill-rule:nonzero}
    .fil11 {fill:url(#id13);fill-rule:nonzero}
    .fil14 {fill:url(#id14);fill-rule:nonzero}
    .fil30 {fill:url(#id15);fill-rule:nonzero}
    .fil0 {fill:url(#id16);fill-rule:nonzero}
    .fil24 {fill:url(#id17);fill-rule:nonzero}
    .fil5 {fill:url(#id18);fill-rule:nonzero}
    .fil28 {fill:url(#id19);fill-rule:nonzero}
    .fil21 {fill:url(#id20);fill-rule:nonzero}
    .fil32 {fill:url(#id21);fill-rule:nonzero}
    .fil15 {fill:url(#id22);fill-rule:nonzero}
    .fil20 {fill:url(#id23);fill-rule:nonzero}
    .fil29 {fill:url(#id24);fill-rule:nonzero}
    .fil12 {fill:url(#id25);fill-rule:nonzero}
    .fil1 {fill:url(#id26);fill-rule:nonzero}
    .fil22 {fill:url(#id27);fill-rule:nonzero}
    .fil27 {fill:url(#id28);fill-rule:nonzero}
    .fil10 {fill:url(#id29);fill-rule:nonzero}
    .fil4 {fill:url(#id30);fill-rule:nonzero}
    .fil3 {fill:url(#id31);fill-rule:nonzero}
    .fil9 {fill:url(#id32);fill-rule:nonzero}
    .fil33 {fill:url(#id33);fill-rule:nonzero}
    .fil31 {fill:url(#id34);fill-rule:nonzero}
    .fil2 {fill:url(#id35);fill-rule:nonzero}
    .fil6 {fill:url(#id36);fill-rule:nonzero}
    .fil25 {fill:url(#id37);fill-rule:nonzero}
    .fil19 {fill:url(#id38);fill-rule:nonzero}
   ]]>
  </style>
  <linearGradient id="id0" gradientUnits="userSpaceOnUse" x1="170.31" y1="857.85" x2="11750.9" y2="10208.12">
   <stop offset="0" style="stop-opacity:1; stop-color:#3C91E6"/>
   <stop offset="1" style="stop-opacity:1; stop-color:#111D4A"/>
  </linearGradient>
  <linearGradient id="id1" gradientUnits="userSpaceOnUse" xlink:href="#id0" x1="170.31" y1="860.12" x2="11750.9" y2="10207.08">
  </linearGradient>
  <linearGradient id="id2" gradientUnits="userSpaceOnUse" xlink:href="#id0" x1="170.31" y1="857.85" x2="11750.9" y2="10208.12">
  </linearGradient>
  <linearGradient id="id3" gradientUnits="userSpaceOnUse" xlink:href="#id0" x1="170.31" y1="857.85" x2="11750.9" y2="10208.12">
  </linearGradient>
  <linearGradient id="id4" gradientUnits="userSpaceOnUse" xlink:href="#id0" x1="170.31" y1="857.85" x2="11750.9" y2="10208.12">
  </linearGradient>
  <linearGradient id="id5" gradientUnits="userSpaceOnUse" xlink:href="#id0" x1="13919.01" y1="-7499.34" x2="29143.77" y2="4793.98">
  </linearGradient>
  <linearGradient id="id6" gradientUnits="userSpaceOnUse" xlink:href="#id0" x1="13919.04" y1="-7498.79" x2="29143.74" y2="4793.81">
  </linearGradient>
  <linearGradient id="id7" gradientUnits="userSpaceOnUse" xlink:href="#id0" x1="13919.04" y1="-7498.57" x2="29143.58" y2="4793.81">
  </linearGradient>
  <linearGradient id="id8" gradientUnits="userSpaceOnUse" xlink:href="#id0" x1="13919.04" y1="-7498.57" x2="29143.71" y2="4793.81">
  </linearGradient>
  <linearGradient id="id9" gradientUnits="userSpaceOnUse" xlink:href="#id0" x1="13919.17" y1="-7498.69" x2="29143.51" y2="4793.81">
  </linearGradient>
  <linearGradient id="id10" gradientUnits="userSpaceOnUse" xlink:href="#id0" x1="13919.04" y1="-7498.95" x2="29143.74" y2="4793.85">
  </linearGradient>
  <linearGradient id="id11" gradientUnits="userSpaceOnUse" xlink:href="#id0" x1="13919.01" y1="-7498.79" x2="29143.19" y2="4793.81">
  </linearGradient>
  <linearGradient id="id12" gradientUnits="userSpaceOnUse" xlink:href="#id0" x1="13919.01" y1="-7498.57" x2="29143.38" y2="4793.81">
  </linearGradient>
  <linearGradient id="id13" gradientUnits="userSpaceOnUse" xlink:href="#id0" x1="13919.04" y1="-7498.86" x2="29143.74" y2="4793.85">
  </linearGradient>
  <linearGradient id="id14" gradientUnits="userSpaceOnUse" xlink:href="#id0" x1="13918.65" y1="-7498.14" x2="29143.77" y2="4793.62">
  </linearGradient>
  <linearGradient id="id15" gradientUnits="userSpaceOnUse" xlink:href="#id0" x1="13919.3" y1="-7498.79" x2="29143.71" y2="4793.81">
  </linearGradient>
  <linearGradient id="id16" gradientUnits="userSpaceOnUse" xlink:href="#id0" x1="13919.04" y1="-7498.86" x2="29143.71" y2="4793.85">
  </linearGradient>
  <linearGradient id="id17" gradientUnits="userSpaceOnUse" xlink:href="#id0" x1="13919.04" y1="-7472.24" x2="29143.71" y2="4795.01">
  </linearGradient>
  <linearGradient id="id18" gradientUnits="userSpaceOnUse" xlink:href="#id0" x1="13919.01" y1="-7498.69" x2="29143.84" y2="4793.81">
  </linearGradient>
  <linearGradient id="id19" gradientUnits="userSpaceOnUse" xlink:href="#id0" x1="13918.85" y1="-7498.79" x2="29143.84" y2="4793.81">
  </linearGradient>
  <linearGradient id="id20" gradientUnits="userSpaceOnUse" xlink:href="#id0" x1="13919.04" y1="-7484.49" x2="29143.64" y2="4793.52">
  </linearGradient>
  <linearGradient id="id21" gradientUnits="userSpaceOnUse" xlink:href="#id0" x1="13919.4" y1="-7498.57" x2="29143.71" y2="4793.81">
  </linearGradient>
  <linearGradient id="id22" gradientUnits="userSpaceOnUse" xlink:href="#id0" x1="13919.04" y1="-7498.66" x2="29143.74" y2="4793.81">
  </linearGradient>
  <linearGradient id="id23" gradientUnits="userSpaceOnUse" xlink:href="#id0" x1="13919.04" y1="-7498.57" x2="29143.74" y2="4793.81">
  </linearGradient>
  <linearGradient id="id24" gradientUnits="userSpaceOnUse" xlink:href="#id0" x1="13919.11" y1="-7498.57" x2="29143.71" y2="4793.81">
  </linearGradient>
  <linearGradient id="id25" gradientUnits="userSpaceOnUse" xlink:href="#id0" x1="13919.14" y1="-7498.86" x2="29143.71" y2="4793.85">
  </linearGradient>
  <linearGradient id="id26" gradientUnits="userSpaceOnUse" xlink:href="#id0" x1="13919.11" y1="-7498.73" x2="29144.03" y2="4793.81">
  </linearGradient>
  <linearGradient id="id27" gradientUnits="userSpaceOnUse" xlink:href="#id0" x1="13919.11" y1="-7498.57" x2="29143.61" y2="4793.81">
  </linearGradient>
  <linearGradient id="id28" gradientUnits="userSpaceOnUse" xlink:href="#id0" x1="13918.78" y1="-7498.79" x2="29143.9" y2="4793.81">
  </linearGradient>
  <linearGradient id="id29" gradientUnits="userSpaceOnUse" xlink:href="#id0" x1="13918.91" y1="-7498.86" x2="29143.87" y2="4793.85">
  </linearGradient>
  <linearGradient id="id30" gradientUnits="userSpaceOnUse" xlink:href="#id0" x1="13919.11" y1="-7498.73" x2="29143.58" y2="4793.81">
  </linearGradient>
  <linearGradient id="id31" gradientUnits="userSpaceOnUse" xlink:href="#id0" x1="13919.04" y1="-7498.69" x2="29143.9" y2="4793.81">
  </linearGradient>
  <linearGradient id="id32" gradientUnits="userSpaceOnUse" xlink:href="#id0" x1="13919.11" y1="-7498.86" x2="29143.71" y2="4793.85">
  </linearGradient>
  <linearGradient id="id33" gradientUnits="userSpaceOnUse" xlink:href="#id0" x1="13919.33" y1="-7498.57" x2="29143.74" y2="4793.81">
  </linearGradient>
  <linearGradient id="id34" gradientUnits="userSpaceOnUse" xlink:href="#id0" x1="13919.33" y1="-7498.79" x2="29143.71" y2="4793.81">
  </linearGradient>
  <linearGradient id="id35" gradientUnits="userSpaceOnUse" xlink:href="#id0" x1="13919.04" y1="-7498.69" x2="29143.74" y2="4793.81">
  </linearGradient>
  <linearGradient id="id36" gradientUnits="userSpaceOnUse" xlink:href="#id0" x1="13919.01" y1="-7498.69" x2="29143.84" y2="4793.81">
  </linearGradient>
  <linearGradient id="id37" gradientUnits="userSpaceOnUse" xlink:href="#id0" x1="13918.85" y1="-7498.79" x2="29144" y2="4793.81">
  </linearGradient>
  <linearGradient id="id38" gradientUnits="userSpaceOnUse" xlink:href="#id0" x1="13919.04" y1="-7498.79" x2="29143.94" y2="4793.81">
  </linearGradient>
 </defs>
 <g id="Слой_x0020_1">
  <metadata id="CorelCorpID_0Corel-Layer"/>
  <g id="_2010680497472">
   <path class="fil0" d="M12411.37 3102.18l-401.06 -544.72 127.9 -78.95 453.16 623.66 -180.01 0zm-743.66 0l0 -1105.22 154.75 0 0 1105.22 -154.75 0zm107.35 -486.29l0 -138.96 358.42 0 0 138.96 -358.42 0zm377.36 -48.96l-145.25 -22.08 396.29 -547.9 168.92 0 -419.96 569.97z"/>
   <path class="fil1" d="M13075.53 3111.64c-84.2,0 -158.96,-18.48 -224.2,-55.25 -65.26,-36.86 -116.85,-87.41 -154.75,-151.57 -37.87,-65.3 -56.8,-138.93 -56.8,-221.05 0,-83.19 18.93,-156.82 56.8,-221.02 37.9,-64.26 89.48,-114.25 154.75,-150.02 65.23,-36.86 140,-55.28 224.2,-55.28 83.16,0 157.38,18.42 222.61,55.28 66.33,35.76 117.92,85.76 154.75,150.02 37.87,63.13 56.84,136.82 56.84,221.02 0,83.13 -18.97,156.79 -56.84,221.05 -36.83,64.16 -88.41,114.71 -154.75,151.57 -65.23,36.77 -139.45,55.25 -222.61,55.25zm0 -132.6c53.69,0 101.58,-12.19 143.69,-36.31 43.12,-24.25 76.84,-58.42 101.06,-102.65 24.15,-45.29 36.31,-97.43 36.31,-156.31 0,-60.01 -12.16,-111.56 -36.31,-154.75 -24.22,-44.19 -57.94,-78.4 -101.06,-102.58 -42.12,-24.22 -90,-36.34 -143.69,-36.34 -53.66,0 -101.58,12.13 -143.69,36.34 -42.12,24.19 -75.77,58.39 -101.03,102.58 -25.26,43.19 -37.87,94.74 -37.87,154.75 0,58.88 12.61,111.01 37.87,156.31 25.26,44.22 58.91,78.4 101.03,102.65 42.12,24.12 90.04,36.31 143.69,36.31z"/>
   <polygon class="fil2" points="13728.57,3102.18 13728.57,2265.34 13884.9,2265.34 14244.88,2884.3 14181.69,2884.3 14551.17,2265.34 14693.27,2265.34 14693.27,3102.18 14555.9,3102.18 14555.9,2435.88 14581.16,2450.08 14243.29,3007.47 14176.96,3007.47 13837.5,2439.06 13867.52,2432.73 13867.52,3102.18 "/>
   <polygon class="fil3" points="14988.28,3102.18 14988.28,2265.34 15763.52,2265.34 15763.52,3102.18 15611.94,3102.18 15611.94,2360.11 15648.26,2398.01 15103.54,2398.01 15139.85,2360.11 15139.85,3102.18 "/>
   <path class="fil4" d="M16569.91 3102.18l0 -176.83 -7.88 -33.14 0 -301.59c0,-64.2 -18.97,-113.7 -56.87,-148.43 -36.8,-35.79 -92.6,-53.66 -167.33,-53.66 -49.48,0 -97.91,8.4 -145.25,25.22 -47.37,15.82 -87.38,37.38 -119.99,64.75l-63.19 -113.67c43.19,-34.76 94.77,-61.05 154.75,-78.95 61.08,-18.93 124.69,-28.43 191.03,-28.43 114.74,0 203.15,27.92 265.24,83.68 62.12,55.8 93.18,141.03 93.18,255.78l0 505.26 -143.69 0zm-274.71 9.47c-62.09,0 -116.82,-10.57 -164.22,-31.55 -46.3,-21.07 -82.09,-50.06 -107.38,-86.86 -25.22,-37.9 -37.9,-80.5 -37.9,-127.87 0,-45.36 10.6,-86.4 31.61,-123.14 22.11,-36.93 57.35,-66.33 105.79,-88.45 49.48,-22.11 115.81,-33.17 198.91,-33.17l265.24 0 0 108.94 -258.92 0c-75.8,0 -126.8,12.68 -153.16,37.9 -26.29,25.29 -39.46,55.7 -39.46,91.59 0,41.05 16.31,74.21 48.96,99.47 32.62,24.12 77.88,36.31 135.78,36.31 56.84,0 106.28,-12.61 148.39,-37.9 43.19,-25.22 74.21,-62.15 93.18,-110.53l29.96 104.2c-19.97,49.41 -55.21,88.87 -105.73,118.44 -50.58,28.4 -114.25,42.6 -191.06,42.6z"/>
   <polygon class="fil5" points="16986.53,3102.18 16986.53,2265.34 17138.1,2265.34 17138.1,2620.62 17614.93,2620.62 17614.93,2265.34 17766.5,2265.34 17766.5,3102.18 17614.93,3102.18 17614.93,2751.7 17138.1,2751.7 17138.1,3102.18 "/>
   <polygon class="fil6" points="18061.21,3102.18 18061.21,2265.34 18212.78,2265.34 18212.78,2874.84 18725.92,2265.34 18863.26,2265.34 18863.26,3102.18 18711.69,3102.18 18711.69,2492.71 18200.17,3102.18 "/>
   <path class="fil7" d="M19692.74 3102.18l0 -293.68 23.64 28.43 -266.83 0c-111.56,0 -198.91,-23.7 -262.1,-71.04 -62.09,-47.37 -93.12,-116.33 -93.12,-206.88 0,-96.81 33.17,-169.95 99.44,-219.46 67.37,-49.44 156.86,-74.21 268.39,-74.21l366.33 0 0 836.84 -135.75 0zm-606.35 0l227.37 -320.49 156.34 0 -221.05 320.49 -162.66 0zm606.35 -341.01l0 -405.79 23.64 42.63 -249.42 0c-69.48,0 -123.2,13.13 -161.07,39.46 -37.9,25.29 -56.84,67.34 -56.84,126.28 0,109.42 70.52,164.25 211.55,164.25l255.78 0 -23.64 33.17z"/>
   <path class="fil8" d="M20676.09 1930.68l-78.91 320.49 -18.93 -91.56c30.51,0 55.73,9.47 75.77,28.37 20,18.97 29.99,44.26 29.99,75.8 0,31.58 -9.99,57.35 -29.99,77.36 -20.04,20.04 -44.74,29.99 -74.18,29.99 -30.57,0 -55.8,-9.95 -75.8,-29.99 -20,-21.07 -29.99,-46.85 -29.99,-77.36 0,-10.54 0.49,-20.52 1.56,-29.96 2.11,-9.53 5.25,-20.56 9.47,-33.17 4.21,-13.68 10.02,-30.02 17.38,-48.99l74.21 -220.99 99.44 0zm298.41 0l-78.91 320.49 -18.97 -91.56c30.54,0 55.77,9.47 75.77,28.37 20.04,18.97 30.02,44.26 30.02,75.8 0,31.58 -9.99,57.35 -30.02,77.36 -20,20.04 -44.71,29.99 -74.15,29.99 -30.57,0 -55.8,-9.95 -75.8,-29.99 -20.04,-21.07 -29.99,-46.85 -29.99,-77.36 0,-10.54 0.49,-20.52 1.56,-29.96 2.11,-9.53 5.25,-20.56 9.47,-33.17 4.21,-13.68 10.02,-30.02 17.35,-48.99l74.21 -220.99 99.47 0z"/>
   <polygon class="fil9" points="21230.31,3102.18 21230.31,1996.95 21386.61,1996.95 21386.61,2849.55 22040.24,1996.95 22185.52,1996.95 22185.52,3102.18 22030.77,3102.18 22030.77,2251.17 21375.56,3102.18 "/>
   <path class="fil10" d="M22530.16 3102.18l0 -1105.22 431.01 0c96.75,0 179.45,15.27 247.9,45.81 68.35,30.51 121,74.73 157.89,132.6 36.73,57.87 55.21,126.87 55.21,206.85 0,79.98 -18.48,148.95 -55.21,206.82 -36.9,56.87 -89.55,101.06 -157.89,132.64 -68.44,30.44 -151.15,45.78 -247.9,45.78l-344.19 0 71.07 -74.21 0 408.94 -157.89 0zm157.89 -393.11l-71.07 -78.98 339.46 0c101.06,0 177.28,-21.56 228.93,-64.75 52.56,-43.12 78.95,-104.17 78.95,-183.12 0,-78.98 -26.39,-140.03 -78.95,-183.15 -51.65,-43.19 -127.87,-64.75 -228.93,-64.75l-339.46 0 71.07 -78.95 0 653.69z"/>
   <path class="fil11" d="M23641.8 3102.18l0 -1105.22 833.63 0 0 134.23 -677.32 0 0 315.76 344.19 0c131.6,0 231.52,27.36 299.97,82.09 68.47,54.73 102.61,134.26 102.61,238.43 0,107.38 -37.32,189.93 -112.08,247.9 -73.63,57.84 -179.42,86.83 -317.38,86.83l-473.62 0zm156.31 -124.69l311.02 0c91.56,0 160.46,-17.41 206.82,-52.13 47.37,-34.76 71.04,-86.37 71.04,-154.75 0,-132.64 -92.56,-198.91 -277.85,-198.91l-311.02 0 0 405.79z"/>
   <polygon class="fil12" points="24796.6,3102.18 24796.6,1996.95 24952.91,1996.95 24952.91,2849.55 25606.53,1996.95 25751.81,1996.95 25751.81,3102.18 25597.09,3102.18 25597.09,2251.17 24941.85,3102.18 "/>
   <path class="fil13" d="M26590.66 3114.79c-84.26,0 -162.21,-13.71 -233.66,-41.05 -70.65,-28.37 -132.18,-67.86 -184.74,-118.4 -51.68,-51.65 -92.14,-111.63 -121.58,-180.01 -29.57,-68.44 -44.22,-143.66 -44.22,-225.75 0,-82.09 14.65,-157.38 44.22,-225.79 29.44,-68.41 70.48,-127.87 123.14,-178.42 52.56,-51.58 114.12,-91.07 184.74,-118.44 71.49,-28.4 149.43,-42.6 233.66,-42.6 85.27,0 163.63,14.75 235.25,44.19 72.62,28.43 134.23,71.07 184.74,127.9l-102.65 99.47c-42.15,-44.22 -89.52,-76.87 -142.07,-97.88 -52.69,-22.11 -108.94,-33.17 -168.95,-33.17 -62.15,0 -119.99,10.54 -173.65,31.58 -52.69,21.04 -98.46,50.51 -137.37,88.41 -39.07,37.9 -69.48,83.16 -91.62,135.81 -21.04,51.52 -31.51,107.87 -31.51,168.92 0,61.02 10.47,117.85 31.51,170.54 22.14,51.52 52.56,96.32 91.62,134.23 38.91,37.87 84.69,67.28 137.37,88.38 53.66,20.98 111.5,31.58 173.65,31.58 60.01,0 116.26,-10.6 168.95,-31.58 52.56,-22.11 99.92,-55.83 142.07,-101.06l102.65 99.47c-50.51,56.84 -112.11,99.92 -184.74,129.46 -71.62,29.47 -150.53,44.19 -236.81,44.19z"/>
   <path class="fil14" d="M27162.87 2361.7l78.95 -320.52 20.49 91.56c-30.54,0 -56.25,-9.43 -77.36,-28.4 -19.94,-18.93 -29.96,-44.22 -29.96,-75.8 0,-32.62 10.02,-58.39 29.96,-77.36 21.11,-20 46.36,-30.02 75.8,-30.02 30.54,0 55.28,10.54 74.18,31.61 18.97,19.97 28.43,45.26 28.43,75.77 0,9.47 -0.55,19.49 -1.56,30.02 -1.04,9.43 -3.73,20.52 -7.91,33.14 -3.14,12.64 -8.46,28.95 -15.79,48.96l-75.8 221.05 -99.44 0zm298.41 0l78.95 -320.52 20.49 91.56c-30.54,0 -56.25,-9.43 -77.36,-28.4 -19.94,-18.93 -29.96,-44.22 -29.96,-75.8 0,-32.62 10.02,-58.39 29.96,-77.36 21.11,-20 46.4,-30.02 75.8,-30.02 30.54,0 55.28,10.54 74.18,31.61 19,19.97 28.43,45.26 28.43,75.77 0,9.47 -0.55,19.49 -1.56,30.02 -1.04,9.43 -3.73,20.52 -7.88,33.14 -3.18,12.64 -8.49,28.95 -15.82,48.96l-75.8 221.05 -99.44 0z"/>
   <path class="fil15" d="M10556.07 5370.34c-84.23,0 -162.11,-13.78 -233.7,-41.05 -70.52,-28.43 -132.12,-67.89 -184.71,-118.4 -51.58,-51.68 -92.11,-111.63 -121.61,-180.01 -29.44,-68.44 -44.19,-143.69 -44.19,-225.79 0,-82.09 14.75,-157.41 44.19,-225.79 29.5,-68.44 70.55,-127.87 123.2,-178.38 52.59,-51.65 114.19,-91.11 184.74,-118.44 71.55,-28.4 149.43,-42.63 233.66,-42.63 85.24,0 163.66,14.69 235.22,44.22 72.62,28.4 134.19,71.04 184.74,127.9l-102.65 99.44c-42.12,-44.19 -89.45,-76.9 -142.1,-97.85 -52.59,-22.14 -108.94,-33.17 -168.92,-33.17 -62.09,0 -119.99,10.47 -173.68,31.58 -52.59,20.98 -98.43,50.51 -137.34,88.41 -38.97,37.87 -69.48,83.1 -91.59,135.78 -21.07,51.55 -31.58,107.8 -31.58,168.92 0,61.05 10.5,117.85 31.58,170.54 22.11,51.55 52.62,96.29 91.59,134.19 38.91,37.87 84.75,67.34 137.34,88.45 53.69,20.94 111.6,31.55 173.68,31.55 59.98,0 116.33,-10.6 168.92,-31.55 52.65,-22.14 99.99,-55.86 142.1,-101.06l102.65 99.47c-50.55,56.8 -112.11,99.92 -184.74,129.46 -71.55,29.41 -150.5,44.19 -236.81,44.19z"/>
   <polygon class="fil16" points="11169.84,5357.73 11169.84,4520.92 11321.41,4520.92 11321.41,5130.35 11834.58,4520.92 11971.96,4520.92 11971.96,5357.73 11820.38,5357.73 11820.38,4748.29 11308.8,5357.73 "/>
   <path class="fil17" d="M12630.83 5367.19c-85.24,0 -161.56,-18.51 -228.93,-55.25 -66.3,-36.93 -118.4,-87.41 -156.31,-151.57 -37.9,-64.32 -56.84,-137.92 -56.84,-221.05 0,-83.26 18.93,-156.89 56.84,-221.05 37.9,-64.26 90,-114.22 156.31,-149.98 67.37,-36.86 143.69,-55.28 228.93,-55.28 75.77,0 143.17,15.24 202.12,45.81 59.98,29.41 106.31,73.6 138.93,132.6l-115.26 74.21c-27.36,-41.05 -61.05,-71.07 -101.03,-90 -38.97,-20.07 -81.09,-29.99 -126.35,-29.99 -54.73,0 -103.65,12.06 -146.84,36.31 -43.12,24.12 -77.36,58.39 -102.58,102.65 -25.29,43.06 -37.9,94.7 -37.9,154.72 0,59.98 12.61,112.11 37.9,156.31 25.22,44.19 59.46,78.4 102.58,102.65 43.19,24.12 92.11,36.31 146.84,36.31 45.26,0 87.38,-9.5 126.35,-28.43 39.98,-20.07 73.66,-50.55 101.03,-91.59l115.26 72.62c-32.62,57.87 -78.95,102.65 -138.93,134.23 -58.94,30.41 -126.35,45.78 -202.12,45.78z"/>
   <polygon class="fil18" points="13323.13,5357.73 13323.13,4614.07 13361.03,4653.53 13016.78,4653.53 13016.78,4520.92 13780.99,4520.92 13780.99,4653.53 13438.39,4653.53 13474.7,4614.07 13474.7,5357.73 "/>
   <path class="fil19" d="M14271.56 5367.19c-89.48,0 -168.43,-18.51 -236.84,-55.25 -67.34,-36.93 -119.99,-87.41 -157.86,-151.57 -36.83,-64.32 -55.28,-137.92 -55.28,-221.05 0,-83.26 17.9,-156.89 53.69,-221.05 36.83,-64.26 86.83,-114.22 149.98,-149.98 64.2,-36.86 136.33,-55.28 216.29,-55.28 81.09,0 152.64,17.86 214.73,53.69 62.12,35.76 110.53,86.27 145.28,151.57 35.79,64.16 53.66,139.38 53.66,225.79 0,6.32 -0.52,13.65 -1.59,22.08 0,8.36 -0.49,16.24 -1.56,23.7l-712.05 0 0 -108.94 633.1 0 -61.54 37.87c1.01,-53.66 -10.02,-101.61 -33.17,-143.66 -23.15,-42.18 -55.28,-74.76 -96.32,-97.88 -40.01,-24.25 -86.83,-36.31 -140.55,-36.31 -52.59,0 -99.44,12.06 -140.48,36.31 -41.05,23.12 -73.14,56.25 -96.32,99.44 -23.15,42.08 -34.76,90.46 -34.76,145.28l0 25.26c0,55.73 12.68,105.79 37.9,150.02 26.36,43.09 62.67,76.81 108.94,101.06 46.33,24.12 99.5,36.31 159.48,36.31 49.48,0 94.22,-8.49 134.19,-25.29 41.05,-16.92 76.87,-42.18 107.38,-75.77l83.68 97.85c-37.9,44.26 -85.27,77.84 -142.1,101.06 -55.77,23.12 -118.4,34.76 -187.88,34.76z"/>
   <polygon class="fil20" points="14890.37,5357.73 14890.37,4520.92 15046.67,4520.92 15406.68,5139.82 15343.49,5139.82 15712.97,4520.92 15855.07,4520.92 15855.07,5357.73 15717.7,5357.73 15717.7,4691.43 15742.96,4705.66 15405.09,5262.96 15338.76,5262.96 14999.3,4694.57 15029.33,4688.28 15029.33,5357.73 "/>
   <path class="fil21" d="M16977.42 5357.73l0 -836.81 151.57 0 0 836.81 -151.57 0zm-449.98 -552.63c106.28,1.04 186.81,25.29 241.54,72.62 55.8,47.37 83.68,114.16 83.68,200.53 0,90.42 -30.54,160.46 -91.56,210 -60.01,48.37 -146.35,72.07 -258.95,71.04l-352.07 -1.56 0 -836.81 151.57 0 0 282.59 225.79 1.59zm-36.31 438.96c67.34,1.01 118.89,-12.68 154.72,-41.05 35.79,-28.43 53.66,-70.65 53.66,-126.35 0,-54.83 -17.86,-94.7 -53.66,-119.99 -34.76,-25.22 -86.31,-38.45 -154.72,-39.46l-189.47 -3.18 0 328.43 189.47 1.59z"/>
   <path class="fil22" d="M18234.47 5370.34c-69.48,0 -131.02,-11.06 -184.74,-33.17 -52.62,-22.08 -97.85,-54.79 -135.75,-97.85 -37.9,-44.26 -66.89,-99.5 -86.86,-165.8 -18.93,-67.44 -28.4,-146.38 -28.4,-236.84 0,-71.59 6.32,-135.78 18.93,-192.62 12.61,-56.84 30.51,-107.35 53.66,-151.57 24.25,-44.19 53.69,-82.64 88.45,-115.26 35.79,-32.68 75.77,-59.53 119.99,-80.5 45.26,-22.11 94.7,-39.04 148.39,-50.55l382.09 -85.27 22.11 140.55 -352.1 75.77c-21.01,4.18 -46.3,10.5 -75.8,18.93 -29.44,8.36 -59.46,21.56 -89.97,39.49 -30.51,16.83 -58.94,40.46 -85.24,71.04 -26.36,30.48 -47.4,70.52 -63.19,119.99 -15.76,48.41 -23.67,108.39 -23.67,180.01 0,19.97 0.55,35.21 1.56,45.78 1.07,10.47 2.14,21.01 3.14,31.58 2.14,10.47 3.73,26.29 4.8,47.4l-63.19 -64.75c16.86,-57.97 43.7,-108.48 80.54,-151.57 36.83,-43.22 81.05,-76.35 132.64,-99.5 52.59,-24.25 109.97,-36.31 172.06,-36.31 77.94,0 146.84,16.79 206.85,50.58 61.05,33.56 108.9,79.92 143.66,138.89 34.72,58.88 52.13,126.35 52.13,202.12 0,76.77 -18.42,145.7 -55.28,206.82 -35.76,60.01 -86.83,107.38 -153.16,142.1 -66.33,33.59 -144.21,50.51 -233.66,50.51zm14.2 -126.28c53.69,0 101.06,-11.64 142.1,-34.76 41.05,-24.25 73.18,-56.38 96.32,-96.32 23.15,-41.05 34.72,-86.83 34.72,-137.34 0,-50.55 -11.57,-95.29 -34.72,-134.23 -23.15,-39 -55.28,-69.48 -96.32,-91.56 -41.05,-23.21 -89.48,-34.72 -145.28,-34.72 -52.59,0 -99.92,11.02 -142.04,33.17 -42.12,20.94 -74.76,50.97 -97.91,89.97 -23.15,37.9 -34.76,82.09 -34.76,132.64 0,50.51 11.61,96.78 34.76,138.93 24.22,41.05 56.87,73.63 97.91,97.91 42.12,24.12 90.49,36.31 145.22,36.31z"/>
   <path class="fil23" d="M19265.65 5367.19c-89.48,0 -168.43,-18.51 -236.84,-55.25 -67.34,-36.93 -119.99,-87.41 -157.86,-151.57 -36.83,-64.32 -55.25,-137.92 -55.25,-221.05 0,-83.26 17.86,-156.89 53.66,-221.05 36.83,-64.26 86.83,-114.22 149.98,-149.98 64.2,-36.86 136.33,-55.28 216.29,-55.28 81.09,0 152.64,17.86 214.73,53.69 62.12,35.76 110.53,86.27 145.28,151.57 35.79,64.16 53.66,139.38 53.66,225.79 0,6.32 -0.52,13.65 -1.59,22.08 0,8.36 -0.52,16.24 -1.56,23.7l-712.05 0 0 -108.94 633.1 0 -61.57 37.87c1.04,-53.66 -9.99,-101.61 -33.14,-143.66 -23.15,-42.18 -55.25,-74.76 -96.36,-97.88 -39.98,-24.25 -86.83,-36.31 -140.52,-36.31 -52.59,0 -99.44,12.06 -140.48,36.31 -41.05,23.12 -73.14,56.25 -96.32,99.44 -23.15,42.08 -34.69,90.46 -34.69,145.28l0 25.26c0,55.73 12.61,105.79 37.87,150.02 26.29,43.09 62.64,76.81 108.9,101.06 46.33,24.12 99.5,36.31 159.45,36.31 49.51,0 94.25,-8.49 134.23,-25.29 41.05,-16.92 76.87,-42.18 107.38,-75.77l83.68 97.85c-37.9,44.26 -85.27,77.84 -142.1,101.06 -55.77,23.12 -118.44,34.76 -187.88,34.76z"/>
   <path class="fil24" d="M20110.66 5368.75c73.69,0 138.96,-10.6 195.83,-31.58 57.87,-22.08 103.65,-52.07 137.31,-89.97 33.72,-39.04 50.58,-83.68 50.58,-134.23 0,-63.13 -26.88,-113.22 -80.57,-149.98 -53.66,-36.9 -127.32,-55.25 -221.02,-55.25l-6.35 36.31c54.79,0 103.2,-9.05 145.28,-26.85 42.12,-17.96 75.77,-42.15 101.06,-72.62 25.26,-31.61 37.9,-67.44 37.9,-107.38 0,-47.37 -16.86,-88.41 -50.51,-123.14 -32.65,-34.76 -77.36,-61.11 -134.23,-78.95 -56.84,-18.93 -121.58,-27.4 -194.21,-25.29 -48.41,1.04 -97.36,8.36 -146.84,22.14 -48.41,12.61 -97.85,31.03 -148.43,55.25l41.05 118.44c45.29,-22.11 89.48,-38.48 132.67,-48.99 44.19,-10.57 87.38,-16.31 129.43,-17.35 43.19,0 80.54,4.73 112.11,14.2 32.65,9.47 57.87,23.15 75.77,41.05 17.93,17.83 26.88,39.49 26.88,64.75 0,23.12 -7.88,43.64 -23.7,61.6 -14.75,16.79 -35.76,29.41 -63.13,37.9 -27.43,8.3 -59.53,12.61 -96.32,12.61l-142.14 0 0 108.94 151.57 0c62.12,0 110.53,10.47 145.28,31.58 34.72,20.98 52.07,51 52.07,90 0,27.27 -9.43,51.52 -28.37,72.62 -18.97,19.94 -46.33,35.76 -82.09,47.34 -34.76,11.51 -76.35,17.41 -124.76,17.41 -52.65,0 -104.72,-6.91 -156.31,-20.56 -51.58,-14.78 -97.36,-34.72 -137.34,-59.98l-45.81 115.26c47.4,30.44 101.06,54.14 161.07,71 61.02,15.82 123.14,23.7 186.26,23.7z"/>
   <path class="fil25" d="M21083.15 5367.19c-84.17,0 -158.93,-18.51 -224.2,-55.25 -65.23,-36.93 -116.82,-87.41 -154.72,-151.57 -37.9,-65.3 -56.8,-138.96 -56.8,-221.05 0,-83.26 18.9,-156.89 56.8,-221.05 37.9,-64.26 89.48,-114.22 154.72,-149.98 65.26,-36.86 140.03,-55.28 224.2,-55.28 83.16,0 157.38,18.42 222.61,55.28 66.3,35.76 117.92,85.72 154.72,149.98 37.9,63.16 56.8,136.79 56.8,221.05 0,83.13 -18.9,156.73 -56.8,221.05 -36.8,64.16 -88.41,114.64 -154.72,151.57 -65.23,36.73 -139.45,55.25 -222.61,55.25zm0 -132.6c53.69,0 101.58,-12.19 143.69,-36.31 43.15,-24.25 76.87,-58.46 100.99,-102.65 24.25,-45.36 36.31,-97.43 36.31,-156.31 0,-60.01 -12.06,-111.66 -36.31,-154.72 -24.12,-44.26 -57.84,-78.53 -100.99,-102.65 -42.12,-24.25 -90,-36.31 -143.69,-36.31 -53.66,0 -101.54,12.06 -143.66,36.31 -42.08,24.12 -75.8,58.39 -101.03,102.65 -25.29,43.06 -37.9,94.7 -37.9,154.72 0,58.88 12.61,110.95 37.9,156.31 25.22,44.19 58.94,78.4 101.03,102.65 42.12,24.12 90,36.31 143.66,36.31z"/>
   <polygon class="fil26" points="21736.22,5357.73 21736.22,4520.92 22511.42,4520.92 22511.42,5357.73 22359.85,5357.73 22359.85,4615.62 22396.16,4653.53 21851.44,4653.53 21887.79,4615.62 21887.79,5357.73 "/>
   <path class="fil27" d="M23317.88 5357.73l0 -176.86 -7.88 -33.17 0 -301.55c0,-64.26 -18.97,-113.67 -56.87,-148.43 -36.86,-35.83 -92.69,-53.66 -167.33,-53.66 -49.54,0 -97.91,8.36 -145.25,25.29 -47.37,15.76 -87.44,37.29 -119.99,64.71l-63.16 -113.7c43.09,-34.72 94.74,-61.11 154.72,-78.91 61.02,-18.93 124.73,-28.43 191.03,-28.43 114.71,0 203.12,27.85 265.24,83.71 62.02,55.7 93.18,140.94 93.18,255.74l0 505.26 -143.69 0zm-274.71 9.47c-62.12,0 -116.85,-10.63 -164.22,-31.58 -46.33,-21.11 -82.09,-50.09 -107.38,-86.83 -25.22,-37.9 -37.87,-80.54 -37.87,-127.87 0,-45.36 10.47,-86.4 31.58,-123.2 22.11,-36.86 57.29,-66.27 105.79,-88.38 49.38,-22.14 115.71,-33.17 198.91,-33.17l265.27 0 0 108.94 -258.95 0c-75.8,0 -126.87,12.61 -153.16,37.9 -26.39,25.26 -39.46,55.7 -39.46,91.56 0,41.05 16.24,74.18 48.96,99.47 32.58,24.12 77.81,36.31 135.78,36.31 56.84,0 106.25,-12.61 148.39,-37.9 43.12,-25.26 74.21,-62.12 93.18,-110.49l29.96 104.2c-20.07,49.41 -55.21,88.87 -105.73,118.4 -50.55,28.43 -114.29,42.63 -191.06,42.63z"/>
   <path class="fil28" d="M24099.18 5367.19c-85.24,0 -161.59,-18.51 -228.93,-55.25 -66.3,-36.93 -118.4,-87.41 -156.31,-151.57 -37.87,-64.32 -56.84,-137.92 -56.84,-221.05 0,-83.26 18.97,-156.89 56.84,-221.05 37.9,-64.26 90,-114.22 156.31,-149.98 67.34,-36.86 143.69,-55.28 228.93,-55.28 75.8,0 143.14,15.24 202.08,45.81 60.01,29.41 106.41,73.6 138.96,132.6l-115.26 74.21c-27.4,-41.05 -60.99,-71.07 -101.06,-90 -38.87,-20.07 -81.05,-29.99 -126.28,-29.99 -54.7,0 -103.62,12.06 -146.84,36.31 -43.19,24.12 -77.36,58.39 -102.61,102.65 -25.26,43.06 -37.87,94.7 -37.87,154.72 0,59.98 12.61,112.11 37.87,156.31 25.26,44.19 59.43,78.4 102.61,102.65 43.22,24.12 92.14,36.31 146.84,36.31 45.23,0 87.41,-9.5 126.28,-28.43 40.07,-20.07 73.66,-50.55 101.06,-91.59l115.26 72.62c-32.55,57.87 -78.95,102.65 -138.96,134.23 -58.94,30.41 -126.28,45.78 -202.08,45.78z"/>
   <polygon class="fil29" points="24636.47,5357.73 24636.47,4520.92 24788.04,4520.92 24788.04,4876.17 25264.84,4876.17 25264.84,4520.92 25416.41,4520.92 25416.41,5357.73 25264.84,5357.73 25264.84,5007.18 24788.04,5007.18 24788.04,5357.73 "/>
   <path class="fil30" d="M26069.51 5367.19c-84.13,0 -158.9,-18.51 -224.2,-55.25 -65.2,-36.93 -116.82,-87.41 -154.72,-151.57 -37.9,-65.3 -56.87,-138.96 -56.87,-221.05 0,-83.26 18.97,-156.89 56.87,-221.05 37.9,-64.26 89.52,-114.22 154.72,-149.98 65.3,-36.86 140.06,-55.28 224.2,-55.28 83.23,0 157.44,18.42 222.61,55.28 66.3,35.76 117.98,85.72 154.72,149.98 37.9,63.16 56.87,136.79 56.87,221.05 0,83.13 -18.97,156.73 -56.87,221.05 -36.73,64.16 -88.41,114.64 -154.72,151.57 -65.17,36.73 -139.38,55.25 -222.61,55.25zm0 -132.6c53.69,0 101.58,-12.19 143.66,-36.31 43.22,-24.25 76.94,-58.46 101.06,-102.65 24.25,-45.36 36.31,-97.43 36.31,-156.31 0,-60.01 -12.06,-111.66 -36.31,-154.72 -24.12,-44.26 -57.84,-78.53 -101.06,-102.65 -42.08,-24.25 -89.97,-36.31 -143.66,-36.31 -53.69,0 -101.51,12.06 -143.66,36.31 -42.08,24.12 -75.8,58.39 -101.06,102.65 -25.29,43.06 -37.9,94.7 -37.9,154.72 0,58.88 12.61,110.95 37.9,156.31 25.26,44.19 58.98,78.4 101.06,102.65 42.15,24.12 89.97,36.31 143.66,36.31z"/>
   <path class="fil31" d="M27087.3 5367.19c-85.24,0 -161.59,-18.51 -228.93,-55.25 -66.33,-36.93 -118.4,-87.41 -156.31,-151.57 -37.9,-64.32 -56.87,-137.92 -56.87,-221.05 0,-83.26 18.97,-156.89 56.87,-221.05 37.9,-64.26 89.97,-114.22 156.31,-149.98 67.34,-36.86 143.69,-55.28 228.93,-55.28 75.8,0 143.14,15.24 202.08,45.81 60.01,29.41 106.41,73.6 138.96,132.6l-115.26 74.21c-27.4,-41.05 -60.99,-71.07 -101.06,-90 -38.87,-20.07 -81.09,-29.99 -126.28,-29.99 -54.7,0 -103.62,12.06 -146.84,36.31 -43.19,24.12 -77.39,58.39 -102.61,102.65 -25.26,43.06 -37.9,94.7 -37.9,154.72 0,59.98 12.64,112.11 37.9,156.31 25.22,44.19 59.43,78.4 102.61,102.65 43.22,24.12 92.14,36.31 146.84,36.31 45.2,0 87.41,-9.5 126.28,-28.43 40.07,-20.07 73.66,-50.55 101.06,-91.59l115.26 72.62c-32.55,57.87 -78.95,102.65 -138.96,134.23 -58.94,30.41 -126.28,45.78 -202.08,45.78z"/>
   <polygon class="fil32" points="27779.5,5357.73 27779.5,4614.07 27817.4,4653.53 27473.21,4653.53 27473.21,4520.92 28237.39,4520.92 28237.39,4653.53 27894.76,4653.53 27931.07,4614.07 27931.07,5357.73 "/>
   <polygon class="fil33" points="28392.43,5357.73 28392.43,4520.92 28544,4520.92 28544,5130.35 29057.18,4520.92 29194.55,4520.92 29194.55,5357.73 29042.97,5357.73 29042.97,4748.29 28531.39,5357.73 "/>
  </g>
  <g id="_2011030417696">
   <path class="fil34" d="M5444.62 5591.42c-28.5,19.03 -57.65,44.35 -83.81,67.6l-142.36 116.75c-133.97,104.24 -260.09,217.91 -393.73,322.56l-196.61 161.53c-9.95,7.72 -18.84,15.56 -28.79,23.64l-43.38 35.24c-8.3,7.49 -5.41,5.61 -15.34,10.83 -18.32,-15.85 -36.57,-30.54 -55.83,-46.07l-764.02 -624.86c-10.08,-7.94 -19.13,-16.15 -28.79,-23.6 -19.39,-15.01 -37.77,-32.81 -58.33,-46.49 9.37,-40.01 59.27,-418.99 69.84,-494.2l186.65 -1336.85c4.15,-28.3 7.1,-24.09 -10.76,-41.27 -4.83,-4.64 -8.79,-8.17 -13.13,-13.07 -5.9,-6.68 -6.52,-9.24 -13.1,-16.02l-583.3 -607.36c-19.84,-19.74 -35.4,-38.19 -55.41,-58.1 -20,-19.94 -35.5,-38.32 -55.41,-58.13l-221.12 -230.1c-20.36,-26.26 -45.91,-47.56 -67.6,-72.11l-99.15 -101.74c-4.86,-4.83 -8.66,-8.11 -13.1,-13.1 -5.87,-6.68 -6.52,-9.24 -13.07,-16.05 -11.8,-12.22 -16.41,-22.34 -35.53,-22.7 -151.34,-2.98 -301.23,3.14 -449.37,3.14 -151.64,0 -303.27,0 -454.91,0 -77.03,0 -144.41,2.92 -221.67,2.92 -151.64,0 -303.27,0 -454.94,0 -78.04,0 -146.35,2.92 -224.52,2.92 -304.54,0 -601.42,2.89 -904.05,2.89 6.42,12.13 7.07,10.28 14.98,19.94l86.27 94.19c28.73,29.73 84.46,86.01 104.11,111.34l469.05 503.22c8.17,8.11 10.12,12.55 17.44,20.43 18.38,19.84 54.14,53.56 69.29,73.34 18.06,23.6 78.33,83.16 104.3,111.14l294.55 316.73c7.88,7.94 9.76,12.58 17.38,20.49l259.54 278.99c41.6,43.02 79.92,88.67 122.55,130.69l122.52 130.72c6.91,7.46 8.43,11.44 15.95,19l34.98 37.77c6.45,6.52 11.06,10.83 17.61,17.35l52.52 58.07c7.23,8.98 8.69,11.93 22.31,12.68 67.4,3.6 175.56,-3.14 251.04,-3.14 191.32,0 380.73,-5.8 571.6,-5.8 -7.33,-13.78 -23.05,-29.89 -34.24,-41.47l-192.39 -200.59c-7.42,-8.85 -9.14,-11.87 -17.64,-20.23l-38.19 -40.4c-25.78,-32.19 -71.33,-68.6 -97.1,-100.83l-113.99 -121.81c-12.71,-12.81 -27.98,-25.84 -39.3,-39.3 -7.39,-8.85 -9.11,-11.87 -17.61,-20.23l-38.23 -40.4c-6.06,-7.55 -13,-13.52 -20.1,-20.65l-75.7 -78.59c-7.42,-8.82 -9.11,-11.87 -17.61,-20.23l-96.2 -101.74c-13.2,-13.65 -27.1,-25.29 -39.39,-39.2 -7.23,-8.2 -9.18,-12.16 -17.51,-20.36 -7.55,-7.42 -12.9,-12.84 -20.46,-20.33 -14.14,-13.97 -23.57,-26.39 -37.9,-40.66l-37.87 -40.72c-12.71,-13.71 -27.46,-25.26 -39.26,-39.33 -29.31,-34.95 -62.48,-67.89 -94.96,-100.09 -8.56,-8.49 -10.86,-13.65 -18.87,-21.92 -13.16,-13.62 -27.07,-25.26 -39.39,-39.2 -17.8,-20.13 -39.33,-39.1 -55.93,-60.5 -7.1,-9.14 -13.26,-12.74 -19.19,-21.56 110.95,0 219.82,-6.22 332.48,-5.8 28.92,0.1 50.38,-2.92 81.64,-2.92 27.79,0 57.06,0.91 84.65,0.1 15.21,-0.45 19.87,-3.14 37.77,-3.05 40.79,0.16 91.49,3.08 129.17,-2.07 38.29,-5.22 85.24,-0.19 124.73,-0.68 16.83,-0.19 21.98,-3.14 40.62,-3.08 59.2,0.23 113.74,-2.3 169.27,-2.89 20.3,-0.23 21.95,-3.18 32.97,7.85 89.09,88.8 811.65,814.82 833.11,829.15 -9.63,41.21 -14.1,96 -19.55,137.47l-216.93 1588.57c-1.78,14.04 -6.87,19.13 2.2,30.18l38.1 40.56c19.32,20.04 42.41,38.42 59.1,60.24 11.35,14.82 25.03,26.39 38.65,39.98l192.49 200.53c27.17,27.07 50.12,52.85 77.26,79.92l172 180.23c7.29,7.55 13,12.84 20.49,20.3l192.46 200.53c59.14,58.59 114.22,120.28 173.52,178.71l153.13 161.27c18.03,20.39 42.7,38.97 59.46,59.92 23.08,28.82 52.52,52.65 76.26,80.92 17.12,20.39 40.4,38.19 58.16,58.26l96.26 101.71c12.64,12.61 28.14,26.13 39.23,39.36 12.35,14.72 23.34,29.5 38.81,39.81 17.61,-4.67 26.36,-25 38.58,-37.06l77.36 -79.85c7.91,-7.91 9.76,-12.55 17.38,-20.46l227.6 -238.17c8.2,-8.27 10.6,-13.62 18.84,-21.92 26.94,-27.14 50.48,-52.69 77.39,-79.79l113.7 -122.1c12.48,-14.14 26.85,-25.16 39.33,-39.3l282.91 -299.29c8.85,-8.72 11.25,-13.03 18.97,-21.79 12,-13.58 25.45,-24.32 37.93,-37.77l37.87 -40.72c52.59,-52.23 100.31,-108.87 153.13,-161.23 8.17,-8.11 10.12,-12.55 17.44,-20.43l58.33 -61.02c13.97,-13.75 24.54,-23.64 36.8,-38.91l151.25 -160.2c12.61,-13.07 28.3,-25.97 39.1,-39.46 18.87,-23.6 28.76,-18.19 23.86,-50.68 -3.6,-23.99 -6,-48.44 -8.85,-69.77 -12.35,-93.8 -21.27,-182.7 -34.14,-276.91 -25.39,-185.61 -46.4,-369.64 -69.32,-555.77l-69.22 -555.84c-9.27,-80.96 -28.82,-202.51 -35.18,-278.73 17.09,-11.44 248.61,-237.39 274.77,-263.78 9.01,-9.01 14.75,-11.93 23.41,-20.23l126.9 -123.59c68.28,-68.12 146,-136.75 214.28,-204.87l170.54 -164.31c16.54,-17.31 30.61,-10.8 73.69,-10.8 114.25,0 220.11,-2.92 332.48,-2.92 225.85,0 443.56,-2.89 667.82,-2.89l-229.64 241.93c-7.04,7 -11.93,11.83 -18.97,18.84 -8.59,8.49 -10.89,13.65 -18.87,21.92l-192.59 200.46c-65.78,65.62 -126.54,135.07 -192.49,200.53 -52.43,52.13 -100.54,109.16 -153.03,161.3l-326.68 339.94c-8.04,8.27 -10.37,13.42 -18.87,21.92 -13.81,13.65 -26,25.16 -39.46,39.1 -8.07,8.33 -10.28,13.42 -18.87,21.88 -9.95,9.79 -11.67,10.02 -18.29,22.5 95.22,0 190.54,0 285.83,0l501.6 -2.89c40.4,0.1 32.84,3.31 52.07,-20.78 20.13,-25.29 113.74,-117.92 139.54,-148.65l49.67 -55.12c6.97,-6.97 12.19,-11.7 19.06,-18.8l85.95 -94.48c5.64,-6.42 11.32,-11.32 17.51,-17.44l70 -75.58c35.92,-35.47 67.57,-76.52 103.52,-111.89l52.43 -55.25c7.29,-8.17 9.18,-12.13 17.48,-20.33 6.29,-6.13 11.87,-11.02 17.51,-17.44l154.75 -168.4c32.16,-38.42 73.86,-71.85 104.14,-111.3l139.22 -148.88c6.97,-7.46 8.49,-11.44 15.98,-19 6.42,-6.48 11.06,-10.83 17.57,-17.35l138.54 -149.69c13.2,-13 21.53,-24.45 34.98,-37.77l138.47 -149.69c6.52,-6.39 11.22,-10.8 17.57,-17.38l35.02 -37.77c7.62,-7.88 9.5,-12.51 17.41,-20.46 6.42,-6.45 11.22,-10.73 17.57,-17.31l121.29 -131.99c24.28,-30.38 114.71,-117.4 139.15,-149.01l85.11 -92.53c11.48,-11.41 49.15,-46.4 50.25,-60.27 -678.72,0 -1356.82,-5.8 -2035.53,-5.8 -64.07,0 -170.02,5.41 -225.33,-2.14 -26.42,-3.6 -447.81,-1.3 -452.7,0.65 -6.94,2.72 -51.1,49.18 -56.87,56.71 -26.49,34.66 -88.67,87.9 -124.73,128.55 -31.12,35.24 -67.08,67.28 -100.54,100.28l-55.41 58.13c-19.65,19.62 -37.22,37.09 -56.87,56.67 -5.06,5.03 -8.24,7.91 -13.23,13.03l-153.03 158.45c-32.84,32.75 -68.09,64.68 -97.78,100.12 -21.59,25.74 -47.56,47.63 -71.33,71.33 -9.95,9.92 -17.73,17.73 -27.72,27.62l-27.66 30.57c-19.74,19.55 -37.22,37.03 -56.9,56.61 -9.95,9.92 -17.77,17.7 -27.69,27.62 -11.74,11.67 -17.09,17.57 -27.85,30.38 -33.14,39.52 -81.15,73.6 -113.31,113.77 -33.14,41.4 -75.25,76.77 -112.63,114.45l-55.41 58.1c-16.86,16.11 -13.16,13.75 -9.27,39.85l246.11 1791.98c2.69,18.42 3.73,34.72 7.42,50.68z"/>
   <path class="fil35" d="M4814.73 1883.18l-548.25 0c-13.68,0 -77.88,-76.19 -94.06,-92.27 -31.87,-31.68 -61.5,-61.31 -93.34,-92.99 -16.47,-16.41 -28.5,-31.35 -45.2,-47.95l-93.34 -92.99c-4.34,-4.34 -7.59,-7.1 -11.51,-11.77l-380.7 -387.86c-10.34,-10.28 -14.07,-14.82 -23.47,-26 -25.48,-30.38 -84.52,-84.85 -116.52,-116.36 -9.56,-9.4 -13.1,-15.76 -21.79,-24.77 -38.13,-39.46 -79.47,-75.96 -116.75,-116.17 -80.15,-86.31 -45.07,-74.86 -161.1,-74.86 -251.24,0 -494.37,-2.92 -746.54,-2.92 14.4,27.14 46.59,50.12 66.21,73.53l100.86 108.71c10.44,12.39 23.41,22.99 34.95,34.95l85.98 91.56c7.94,7.85 9.24,10.57 16.15,18.77l101.9 107.71c24.45,24.06 44.13,47.08 68.6,71.13l33.49 36.38c53.14,52.88 101.35,109.88 154.62,162.69 7.81,7.75 9.24,11.25 16.02,18.9 11.12,12.61 23.44,22.4 35.02,34.85l204.09 218c12.48,12.35 23.05,21.63 34.04,35.83 16.11,20.81 64.36,66.27 85.56,89.09l153.03 164.28c11.54,12.45 23.86,22.24 35.02,34.85 6.78,7.65 8.2,11.15 16.02,18.9 25.39,25.19 63.74,63.35 84.91,89.78 10.6,13.23 24.64,23.64 36.12,36.64l390.78 415.58c6.58,6.45 10.96,10.93 17.54,17.41l67.18 72.53c10.44,12.42 23.41,22.99 34.95,34.92l85.98 91.59c7.94,7.85 9.24,10.57 16.15,18.77 26.36,31.42 59.4,57.48 85.79,88.93 15.47,18.42 35.89,35.34 50.42,54.34l70 72.66c16.76,-4.44 24.35,-22.82 35.66,-34.2l102.13 -107.48c6.22,-6.19 11.77,-10.99 17.48,-17.44 6.74,-7.65 8.2,-11.15 16.02,-18.9l377.75 -399.53c7.81,-7.72 9.27,-11.25 16.02,-18.9l135.56 -143.89c6,-6.48 11.15,-11.09 17.51,-17.41 6.48,-6.45 11.64,-10.76 17.22,-17.73 15.43,-19.26 34.95,-34.53 50.38,-54.44l51.94 -55.77c6.42,-6.48 11.02,-10.89 17.54,-17.38l103.39 -109.1c6.91,-8.24 8.2,-10.96 16.15,-18.77 6.58,-6.48 10.96,-10.93 17.54,-17.41l204.09 -218c13.13,-12.94 22.31,-21.59 33.91,-35.99l136.72 -145.61c11.15,-12.58 23.51,-22.4 35.02,-34.85l409.84 -437.27c10.73,-12.81 23.7,-22.44 34.85,-35.02l86.11 -91.46c7.55,-7.55 9.01,-11.54 15.95,-18.97l68.54 -71.17c22.92,-22.63 163.08,-172.48 169.86,-185.29 -68.54,0 -830.39,0.03 -841.38,4.34 -15.59,6.16 -53.76,55.31 -69.22,70.52l-94.77 94.41c-9.43,9.27 -12.87,15.79 -21.79,24.77 -16.6,16.73 -31.45,31.22 -48.21,47.89 -19.45,19.42 -40.53,37.19 -58.16,58.26 -4.9,5.84 -4.83,7.07 -10.31,12.97 -8.3,8.95 -16.08,15.95 -24.84,24.67 -47.98,47.82 -170.05,167.49 -208.63,213.5l-163.18 165.77c-16.28,16.21 -30.38,30.28 -46.65,46.49 -16.66,16.6 -28.73,31.55 -45.2,47.95 -35.18,34.98 -72.92,71.17 -105.01,107.51 -33.07,37.41 -71.78,70.1 -106.51,106.02 -13.46,13.97 -56.48,70.52 -72.11,70.52z"/>
   <path class="fil36" d="M7168.19 1650.69c643.54,0 1278.13,2.92 1921.77,2.92 -19.91,-18.8 -40.04,-45.52 -62.44,-62.74l-899.87 -875.97c-12.26,-9.27 -21.53,-20 -32.84,-31.22 -9.27,-9.27 -21.53,-26.42 -34.3,-29.8l-487.85 542.58c-5.06,6 -9.27,8.92 -14.43,14.69 -5.9,6.68 -6.52,9.21 -13.13,16.02l-42.8 47.4c-9.08,11.7 -17.67,18.45 -27.53,30.7l-279.57 311.28c-11.06,10.86 -19.81,20.49 -27.01,34.14z"/>
   <path class="fil37" d="M29.11 1644.88c14.43,-6.91 856.23,-2.92 947.78,-2.92 316.92,0 633.81,0 950.74,0l-80.89 -93.76c-5.35,-5.54 -9.56,-8.72 -14.49,-14.62 -5.87,-6.97 -6.42,-9.08 -13.23,-15.89l-166.42 -182.92c-18.29,-21.82 -38.13,-37.9 -55.77,-60.66l-235.67 -259.18c-5.28,-5.35 -9.66,-8.92 -14.59,-14.49 -5.9,-6.68 -6.52,-9.24 -13.1,-16.02l-83.13 -91.53c-5.19,-5.61 -9.27,-8.85 -14.69,-14.43 -6.58,-6.81 -7.2,-9.37 -13.07,-16.05 -4.96,-5.58 -9.31,-9.14 -14.62,-14.49l-110.79 -122.07c-12.16,-11.9 -46.07,-53.63 -56.12,-60.34 -13.36,3.57 -32.81,29.5 -47.37,42.89l-506.04 489.63c-44.39,38.97 -68.15,67.44 -112.21,106.12 -27.56,24.15 -67.37,72.27 -95.51,93.7 -21.27,16.18 -67.4,66.79 -92.56,90.88l-33.59 30.44c-22.53,22.5 -55.25,57.42 -78.43,75.87 -6.48,5.16 -10.34,9.69 -16.34,15.69 -7.55,7.55 -26.2,23.93 -29.89,34.14z"/>
   <path class="fil38" d="M3971.92 642.27l506.69 526.72c18.67,18.61 62.74,67.57 73.63,74.83 13.52,-3.6 28.6,-24.12 38.65,-34.14l34.98 -37.8c39.72,-39.13 73.31,-71 109.39,-111.82 28.08,-31.77 85.72,-79.24 110.3,-110.98 24.45,-31.51 77.97,-77.07 108.45,-109.88l36.41 -39.26c25,-24.93 47.76,-47.85 72.92,-72.66 7.94,-7.81 9.6,-10.21 16.34,-18.61 13.29,-16.6 44.13,-40.27 55.83,-57.68 -3.66,-13.65 -95.32,-109.97 -107.22,-122.75 -7.36,-7.91 -9.18,-12.32 -17.41,-20.43l-165.77 -183.54c-7.39,-9.56 -9.95,-11.67 -18.06,-19.81l-256.59 -284.83c-8.79,-9.47 -8.17,-16.18 -21.14,-19.65l-325.38 358.68c-7.39,9.56 -9.95,11.67 -18.06,19.81l-198.26 220.89c-8.2,9.27 -32.39,30.54 -35.7,42.89z"/>
  </g>
 </g>
</svg>
