<svg width="77" height="77" viewBox="0 0 77 77" fill="none" xmlns="http://www.w3.org/2000/svg">
<path fill-rule="evenodd" clip-rule="evenodd" d="M0 38.5C0 59.763 17.237 77 38.5 77C59.763 77 77 59.763 77 38.5C77 17.237 59.763 0 38.5 0C17.237 0 0 17.237 0 38.5ZM7.7 38.5C7.7 21.4896 21.4896 7.7 38.5 7.7C55.5104 7.7 69.3 21.4896 69.3 38.5C69.3 55.5104 55.5104 69.3 38.5 69.3C21.4896 69.3 7.7 55.5104 7.7 38.5ZM56.738 29.5515C58.1748 27.9841 58.0689 25.5487 56.5015 24.112C54.9341 22.6752 52.4987 22.7811 51.062 24.3485L32.8631 44.2018L26.0577 36.0353C24.6964 34.4018 22.2688 34.1811 20.6353 35.5423C19.0018 36.9036 18.7811 39.3312 20.1423 40.9647L29.7673 52.5147C30.4785 53.3681 31.5236 53.8727 32.6341 53.8989C33.7447 53.9251 34.8124 53.4704 35.563 52.6515L56.738 29.5515Z" fill="url(#paint0_linear_26_81)"/>
<defs>
<linearGradient id="paint0_linear_26_81" x1="-9.40116" y1="39" x2="77" y2="39" gradientUnits="userSpaceOnUse">
<stop stop-color="#3C91E6"/>
<stop offset="1" stop-color="#111D4A"/>
</linearGradient>
</defs>
</svg>
