<svg width="86" height="78" viewBox="0 0 86 78" fill="none" xmlns="http://www.w3.org/2000/svg">
<path fill-rule="evenodd" clip-rule="evenodd" d="M38.7 0C33.9504 0 30.1 3.85035 30.1 8.6V12.9L12.9 12.9C5.77553 12.9 0 18.6755 0 25.8V64.5C0 71.6245 5.77553 77.4 12.9 77.4H73.1C80.2245 77.4 86 71.6245 86 64.5V25.8C86 18.6755 80.2245 12.9 73.1 12.9L55.9 12.9V8.6C55.9 3.85035 52.0497 0 47.3 0H38.7ZM52.6153 21.5C50.2532 24.1391 46.8206 25.8 43 25.8C39.1795 25.8 35.7468 24.1391 33.3848 21.5L12.9 21.5C10.5252 21.5 8.6 23.4252 8.6 25.8L8.6 64.5C8.6 66.8748 10.5252 68.8 12.9 68.8V66.65C12.9 62.4388 14.6296 58.6316 17.4172 55.9C14.6296 53.1684 12.9 49.3612 12.9 45.15C12.9 36.8381 19.6381 30.1 27.95 30.1C36.2619 30.1 43 36.8381 43 45.15C43 49.3612 41.2704 53.1684 38.4828 55.9C41.2704 58.6316 43 62.4388 43 66.65V68.8L73.1 68.8C75.4748 68.8 77.4 66.8748 77.4 64.5V25.8C77.4 23.4252 75.4748 21.5 73.1 21.5H52.6153ZM38.7 8.6H47.3V12.9C47.3 15.2748 45.3748 17.2 43 17.2C40.6252 17.2 38.7 15.2748 38.7 12.9V8.6ZM34.4 66.65V68.8H21.5V66.65C21.5 63.0878 24.3878 60.2 27.95 60.2C31.5122 60.2 34.4 63.0878 34.4 66.65ZM34.4 45.15C34.4 48.7122 31.5122 51.6 27.95 51.6C24.3878 51.6 21.5 48.7122 21.5 45.15C21.5 41.5878 24.3878 38.7 27.95 38.7C31.5122 38.7 34.4 41.5878 34.4 45.15ZM47.3 38.7C47.3 36.3252 49.2252 34.4 51.6 34.4H68.8C71.1748 34.4 73.1 36.3252 73.1 38.7C73.1 41.0748 71.1748 43 68.8 43H51.6C49.2252 43 47.3 41.0748 47.3 38.7ZM51.6 51.6C49.2252 51.6 47.3 53.5252 47.3 55.9C47.3 58.2748 49.2252 60.2 51.6 60.2H68.8C71.1748 60.2 73.1 58.2748 73.1 55.9C73.1 53.5252 71.1748 51.6 68.8 51.6H51.6Z" fill="url(#paint0_linear_26_82)"/>
<defs>
<linearGradient id="paint0_linear_26_82" x1="-10.5" y1="39.2026" x2="86" y2="39.2026" gradientUnits="userSpaceOnUse">
<stop stop-color="#3C91E6"/>
<stop offset="1" stop-color="#111D4A"/>
</linearGradient>
</defs>
</svg>
