<svg width="63" height="90" viewBox="0 0 63 90" fill="none" xmlns="http://www.w3.org/2000/svg">
<path fill-rule="evenodd" clip-rule="evenodd" d="M13.5 32.6461V27C13.5 17.0589 21.5589 9 31.5 9C41.4411 9 49.5 17.0589 49.5 27V32.6461C44.3977 29.0872 38.1926 27 31.5 27C24.8074 27 18.6023 29.0872 13.5 32.6461ZM13.4984 45H13.5V44.9978C17.605 39.534 24.1398 36 31.5 36C38.8602 36 45.395 39.534 49.5 44.9978V45H49.5016C52.3262 48.7605 54 53.4348 54 58.5C54 70.9264 43.9264 81 31.5 81C19.0736 81 9 70.9264 9 58.5C9 53.4348 10.6738 48.7605 13.4984 45ZM4.5 42.2659L4.5 27C4.5 12.0883 16.5883 0 31.5 0C46.4117 0 58.5 12.0883 58.5 27V42.2659C61.3567 47.0068 63 52.5615 63 58.5C63 75.897 48.897 90 31.5 90C14.103 90 0 75.897 0 58.5C0 52.5615 1.64331 47.0068 4.5 42.2659ZM31.5 49.5C36.4706 49.5 40.5 53.5294 40.5 58.5C40.5 63.4706 36.4706 67.5 31.5 67.5C26.5294 67.5 22.5 63.4706 22.5 58.5C22.5 53.5294 26.5294 49.5 31.5 49.5Z" fill="url(#paint0_linear_26_78)"/>
<defs>
<linearGradient id="paint0_linear_26_78" x1="-7.69186" y1="45.5844" x2="63" y2="45.5844" gradientUnits="userSpaceOnUse">
<stop stop-color="#3C91E6"/>
<stop offset="1" stop-color="#111D4A"/>
</linearGradient>
</defs>
</svg>
